<?xml version="1.0" standalone="no"?>
<!DOCTYPE svg PUBLIC "-//W3C//DTD SVG 20010904//EN"
 "http://www.w3.org/TR/2001/REC-SVG-20010904/DTD/svg10.dtd">
<svg version="1.0" xmlns="http://www.w3.org/2000/svg"
 width="1280.000000pt" height="1052.000000pt" viewBox="0 0 1280.000000 1052.000000"
 preserveAspectRatio="xMidYMid meet">
<metadata>
Created by potrace 1.15, written by Peter Selinger 2001-2017
</metadata>
<g transform="translate(0.000000,1052.000000) scale(0.100000,-0.100000)"
fill="#000000" stroke="none">
<path d="M5580 10490 c-17 -17 -19 -29 -15 -78 29 -293 145 -624 339 -970 31
-55 56 -103 56 -107 0 -3 -51 40 -112 97 -247 227 -511 438 -549 438 -10 0
-25 -7 -33 -16 -25 -25 -21 -186 8 -314 20 -86 70 -254 92 -307 4 -9 -10 -10
-50 -6 -53 5 -57 4 -90 -29 -63 -63 -84 -216 -51 -373 8 -38 15 -74 15 -80 0
-6 -21 -9 -49 -7 -45 3 -53 0 -90 -33 -98 -89 -120 -305 -42 -427 l29 -45 -48
5 c-56 5 -98 -14 -134 -61 -96 -126 -99 -314 -7 -406 21 -21 58 -45 82 -54
l44 -15 -71 -1 c-83 -1 -111 -17 -147 -84 -18 -35 -22 -58 -22 -133 0 -81 3
-97 30 -149 18 -36 46 -72 71 -90 l40 -31 -23 -18 c-70 -52 -89 -185 -42 -286
27 -57 69 -107 127 -151 l33 -25 -38 -31 c-82 -65 -130 -238 -86 -307 18 -29
18 -31 1 -65 -10 -20 -18 -57 -18 -85 0 -45 4 -53 44 -92 43 -41 44 -43 25
-60 -30 -27 -79 -134 -79 -173 0 -46 30 -95 70 -116 24 -12 30 -21 24 -33 -53
-124 -31 -263 45 -278 29 -6 29 -6 15 -40 -31 -73 -10 -160 45 -189 l29 -15
-19 -37 c-25 -49 -25 -144 0 -198 10 -22 35 -56 57 -75 l39 -35 -3 -73 c-5
-92 16 -129 90 -166 29 -14 57 -26 64 -26 6 0 14 -19 18 -42 6 -35 17 -53 61
-94 52 -48 55 -53 55 -99 0 -56 26 -102 75 -132 30 -18 30 -18 -180 -26 -115
-4 -219 -12 -230 -17 -11 -5 -141 -14 -290 -20 -262 -10 -644 -34 -734 -46
-53 -7 -101 -49 -101 -88 0 -16 14 -41 34 -63 32 -35 38 -37 98 -39 57 -1 70
-5 114 -37 73 -54 161 -80 269 -80 l90 -1 -60 -18 c-33 -10 -166 -48 -295 -84
-129 -36 -251 -74 -271 -84 -50 -25 -136 -50 -174 -50 -31 0 -346 -76 -440
-107 -127 -41 -235 -115 -235 -162 0 -25 38 -57 90 -78 38 -15 76 -17 245 -16
219 1 408 24 568 67 49 13 85 20 80 15 -18 -17 -379 -193 -1333 -646 -74 -35
-151 -75 -172 -89 -65 -45 -77 -117 -23 -143 26 -12 48 -13 150 -2 66 7 172
15 235 18 l115 4 -25 -20 c-40 -32 -265 -159 -535 -301 -382 -202 -562 -309
-647 -385 -31 -26 -37 -55 -12 -55 11 0 14 -6 9 -20 -6 -18 -2 -20 49 -20 76
0 257 49 412 110 274 110 267 112 69 -26 -457 -318 -894 -594 -1290 -814 -71
-40 -138 -79 -147 -88 -35 -30 -15 -79 41 -100 22 -8 22 -9 -16 -34 -21 -14
-49 -29 -63 -33 -44 -14 -136 -63 -151 -81 -8 -9 -39 -28 -69 -41 -30 -14 -71
-37 -90 -51 -19 -15 -66 -41 -105 -57 -38 -17 -149 -68 -245 -114 -139 -65
-180 -89 -198 -115 -40 -58 -27 -89 43 -104 l39 -8 -37 -23 c-21 -13 -45 -34
-54 -48 -22 -33 -5 -48 50 -47 100 4 610 201 1087 421 41 19 230 98 420 175
190 77 378 155 419 174 41 19 75 33 76 32 2 -2 -133 -111 -298 -243 -359 -287
-407 -331 -407 -368 0 -31 31 -67 59 -67 24 0 359 166 576 285 245 134 508
294 745 454 529 356 643 431 758 504 68 42 121 73 118 69 -4 -8 -182 -136
-427 -308 -31 -21 -172 -147 -313 -279 -245 -229 -256 -242 -256 -277 0 -39
21 -68 49 -68 16 0 380 210 676 390 186 113 448 289 579 388 102 78 122 89
142 82 30 -12 74 4 205 71 165 85 427 270 560 396 l35 34 12 -26 c8 -18 19
-25 40 -25 49 0 253 133 467 304 122 97 397 370 489 486 106 132 235 334 300
465 33 66 61 122 63 124 2 3 16 -7 31 -21 15 -14 37 -31 50 -37 18 -10 20 -15
12 -31 -15 -28 -12 -97 5 -130 19 -37 69 -75 120 -90 40 -12 40 -12 37 -56 -5
-61 33 -125 96 -162 45 -26 47 -29 44 -66 -5 -53 3 -79 35 -117 35 -42 96 -69
156 -69 46 0 47 -1 36 -21 -37 -70 77 -183 198 -197 40 -4 47 -9 59 -37 20
-49 61 -93 97 -103 58 -18 102 -22 134 -13 l32 9 -21 -28 c-48 -66 26 -140
140 -140 29 0 32 -3 27 -20 -9 -28 41 -75 96 -90 43 -12 106 -9 142 5 13 6 17
2 17 -15 0 -31 50 -77 100 -90 52 -14 101 -6 157 25 41 22 42 22 69 4 63 -41
184 -33 257 16 20 14 37 25 39 25 2 0 4 -20 6 -45 6 -88 46 -147 115 -166 48
-13 123 8 181 50 l40 28 26 -56 c64 -134 178 -166 334 -93 47 22 66 27 66 17
0 -18 52 -61 114 -92 34 -17 73 -28 117 -31 120 -8 201 35 251 136 17 34 32
62 34 62 1 0 -1 -13 -6 -30 -7 -26 -5 -33 22 -55 45 -38 155 -91 225 -109 73
-19 151 -20 206 -4 40 12 104 65 124 102 11 19 15 18 111 -27 275 -129 447
-112 483 48 7 31 15 54 18 53 3 -2 39 -25 80 -52 126 -83 341 -155 463 -156
92 0 96 15 49 202 -22 84 -42 173 -46 197 l-7 44 48 -38 c61 -46 210 -118 289
-140 77 -21 313 -32 343 -16 12 6 22 15 22 19 0 4 -41 57 -90 117 -104 126
-195 254 -186 262 3 3 33 1 68 -5 166 -29 294 -22 430 22 40 14 99 30 130 36
80 16 89 35 12 25 -116 -14 -126 -12 -245 48 -63 31 -125 66 -139 77 l-25 19
40 -7 c50 -9 273 -9 420 0 128 8 204 28 247 67 55 49 31 53 -82 13 -98 -35
-112 -37 -220 -37 -161 0 -225 25 -496 185 -144 86 -238 134 -329 170 -34 14
-86 46 -120 76 -87 75 -226 167 -422 278 -146 82 -180 106 -224 157 -106 123
-272 238 -553 386 -88 46 -164 87 -170 92 -6 5 -77 38 -158 74 -157 70 -310
154 -451 249 -149 100 -452 319 -455 329 -2 5 5 9 15 9 33 0 158 47 251 94 57
28 97 43 110 39 16 -4 36 9 81 52 58 55 63 58 142 71 96 17 166 45 227 92 24
18 45 32 46 30 1 -2 7 -15 14 -30 18 -43 48 -36 73 15 16 32 30 46 53 53 21 6
34 18 41 39 6 17 25 52 42 78 57 87 68 214 26 301 -16 35 -16 36 7 61 17 18
25 40 28 78 l4 54 -53 42 c-127 102 -238 134 -464 135 -172 0 -274 -12 -515
-65 -140 -31 -173 -39 -449 -116 -188 -52 -243 -54 -335 -9 -90 44 -203 176
-251 294 -39 97 -181 519 -252 752 -62 204 -71 250 -99 485 -3 28 1 97 9 155
55 384 0 635 -194 897 -38 51 -39 55 -43 150 -5 112 -40 261 -85 362 -17 36
-53 158 -81 271 -113 453 -222 795 -400 1255 -89 231 -262 635 -272 635 -29 0
-57 -173 -57 -355 -1 -235 34 -430 104 -586 30 -66 85 -248 85 -281 0 -5 -37
23 -82 62 -44 38 -83 68 -85 66 -2 -2 19 -41 47 -86 67 -112 67 -124 -7 -95
-21 8 -74 24 -118 35 -46 12 -86 28 -95 39 -131 160 -187 233 -291 381 -256
364 -543 738 -611 795 -36 30 -52 31 -78 5z"/>
</g>
</svg>
